<svg xmlns="http://www.w3.org/2000/svg" viewBox="0 0 1200 380" width="100%" role="img" aria-label="Mohamad Taj Eddin Ashour — Senior Network Engineer / DevOps Engineer">
  <defs>
    <linearGradient id="bg" x1="0" y1="0" x2="1" y2="1">
      <stop offset="0%" stop-color="#15161e"/>
      <stop offset="100%" stop-color="#0a0b10"/>
    </linearGradient>
    <pattern id="grid" width="48" height="48" patternUnits="userSpaceOnUse">
      <path d="M 48 0 L 0 0 0 48" fill="none" stroke="#414868" stroke-width="0.4" opacity="0.35"/>
    </pattern>
    <linearGradient id="accent" x1="0" y1="0" x2="1" y2="0">
      <stop offset="0%" stop-color="#7aa2f7"/>
      <stop offset="60%" stop-color="#7dcfff"/>
      <stop offset="100%" stop-color="#bb9af7"/>
    </linearGradient>
  </defs>

  <rect width="1200" height="380" fill="url(#bg)"/>
  <rect width="1200" height="380" fill="url(#grid)"/>

  <!-- corner brackets -->
  <g stroke="#7aa2f7" stroke-width="1.5" fill="none" opacity="0.9">
    <path d="M 28 28 L 28 64 M 28 28 L 64 28"/>
    <path d="M 1172 28 L 1172 64 M 1172 28 L 1136 28"/>
    <path d="M 28 352 L 28 316 M 28 352 L 64 352"/>
    <path d="M 1172 352 L 1172 316 M 1172 352 L 1136 352"/>
  </g>

  <!-- top meta strip -->
  <text x="60" y="58" font-family="'JetBrains Mono', ui-monospace, monospace" font-size="11" fill="#565f89" letter-spacing="3.6">NODE_01 · Aleppo · SY · 36.59°N 37.05°E · STATUS ONLINE · UPTIME 10Y+</text>

  <!-- ledger line -->
  <line x1="60" y1="78" x2="1140" y2="78" stroke="#292e42" stroke-width="1"/>

  <!-- name — display lockup -->
  <text x="60" y="178" font-family="'JetBrains Mono', ui-monospace, monospace" font-weight="800" font-size="78" fill="#c0caf5" letter-spacing="-3">MOHAMAD TAJ</text>
  <text x="60" y="252" font-family="'JetBrains Mono', ui-monospace, monospace" font-weight="800" font-size="78" fill="url(#accent)" letter-spacing="-3">EDDIN ASHOUR</text>

  <!-- role bar -->
  <rect x="60" y="278" width="6" height="22" fill="#7aa2f7"/>
  <text x="80" y="295" font-family="'JetBrains Mono', ui-monospace, monospace" font-size="14" fill="#a9b1d6" letter-spacing="4">SENIOR NETWORK ENGINEER &#x2215; DEVOPS ENGINEER</text>

  <!-- bottom ledger -->
  <line x1="60" y1="318" x2="1140" y2="318" stroke="#292e42" stroke-width="1"/>
  <text x="60" y="342" font-family="'JetBrains Mono', ui-monospace, monospace" font-size="11" fill="#565f89" letter-spacing="3">SHAMFUTURE.ISP  2015 → PRESENT</text>
  <text x="1140" y="342" font-family="'JetBrains Mono', ui-monospace, monospace" font-size="11" fill="#565f89" letter-spacing="3" text-anchor="end">SAFEE.DEVOPS  FEB&#39;23 → SEP&#39;24</text>
</svg>
